
<svg version="1.1" id="Layer_1" xmlns="http://www.w3.org/2000/svg" xmlns:xlink="http://www.w3.org/1999/xlink" x="0px" y="0px"
	 width="100%" viewBox="0 0 320 320" enable-background="new 0 0 320 320" xml:space="preserve">
<path fill="#000000" opacity="1.000000" stroke="none" 
	d="
M180.000000,321.000000 
	C168.645767,321.000000 157.291550,321.000000 145.142395,320.813538 
	C130.228897,318.263275 116.256783,315.505859 103.045128,309.584961 
	C43.930916,283.092499 12.739964,236.928345 7.929723,172.982330 
	C6.194454,149.914139 10.001907,127.099953 19.151262,105.583633 
	C44.296585,46.449966 89.479050,14.039824 152.958588,7.993550 
	C184.257965,5.012360 213.785065,13.333351 241.000122,29.065504 
	C305.745178,66.492538 335.607147,151.474594 308.121277,222.093262 
	C290.659912,266.956207 258.802155,297.606049 213.032043,313.527893 
	C202.252502,317.277802 191.056854,318.724121 180.000000,321.000000 
M170.782303,123.446892 
	C132.993530,136.238358 96.201668,134.625504 60.648098,115.725899 
	C54.450451,112.431358 54.376320,112.240921 51.378922,118.754707 
	C41.993179,139.151291 39.663315,160.699097 42.678150,182.648682 
	C47.729794,219.427322 65.718620,248.465698 96.749016,269.181213 
	C139.050903,297.421387 197.902985,295.312317 236.920578,263.523682 
	C273.239655,233.933624 288.541962,195.416550 282.676086,148.962784 
	C278.339874,114.623085 262.022614,86.797958 234.623749,65.567169 
	C229.578064,61.657398 229.044128,61.769772 226.658615,67.760017 
	C216.165512,94.109314 197.451218,112.231979 170.782303,123.446892 
z"/>
<path fill="#000000" opacity="1.000000" stroke="none" 
	d="
M122.033348,166.215134 
	C122.801880,173.883957 120.191124,179.759171 114.111809,183.759033 
	C109.309746,186.918503 104.055206,187.107498 98.947144,184.242233 
	C93.272179,181.058975 90.252022,175.950760 89.788925,169.631287 
	C89.518555,165.941849 88.544403,164.253418 84.535286,164.220383 
	C78.313164,164.169083 74.516121,160.225967 74.713753,154.760010 
	C74.907394,149.404663 79.037590,145.699966 85.149849,145.680679 
	C102.482094,145.625977 119.814781,145.622284 137.146973,145.686188 
	C143.859070,145.710938 147.402176,149.098984 147.428574,155.184280 
	C147.454529,161.169006 144.420334,163.877457 137.344101,164.055603 
	C133.846466,164.143661 130.342590,164.004669 126.846237,164.115799 
	C125.117775,164.170746 123.043671,163.594360 122.033348,166.215134 
z"/>
<path fill="#000000" opacity="1.000000" stroke="none" 
	d="
M237.976120,164.159424 
	C234.877869,163.932999 232.225372,163.748749 229.581406,163.480530 
	C225.895645,163.106583 224.202927,164.144806 224.384537,168.419403 
	C224.745316,176.911285 219.971710,183.321564 212.571075,185.358521 
	C201.923859,188.289108 192.160110,180.641205 191.903870,168.759811 
	C191.826691,165.182251 190.771179,164.230728 187.364395,164.237427 
	C181.479279,164.248978 177.730713,160.474747 177.739853,155.151688 
	C177.748779,149.940765 181.644165,145.996490 187.384888,145.724197 
	C191.699478,145.519531 196.030441,145.649918 200.354111,145.648285 
	C212.992889,145.643539 225.631653,145.641541 238.270432,145.649887 
	C246.552841,145.655365 250.319458,148.505859 250.349304,154.760345 
	C250.379730,161.137070 246.993561,163.807632 237.976120,164.159424 
z"/>
<path fill="#000000" opacity="1.000000" stroke="none" 
	d="
M140.251587,219.790649 
	C153.716644,227.181976 167.170517,227.419724 180.870483,221.668488 
	C183.345413,220.629486 185.546967,219.205414 187.541992,217.373535 
	C191.217499,213.998688 196.026978,213.697144 199.173798,216.479950 
	C202.281586,219.228256 202.864395,224.464493 200.451630,228.365784 
	C198.849915,230.955658 196.644287,232.974930 194.166382,234.700790 
	C177.234299,246.493729 146.972244,246.280731 130.303391,234.237457 
	C127.726685,232.375763 125.348991,230.279434 123.868385,227.389587 
	C121.783768,223.320816 122.590576,218.688644 126.080925,216.160385 
	C129.812881,213.457138 133.542175,213.934311 136.985504,216.910370 
	C137.991913,217.780228 138.964355,218.689377 140.251587,219.790649 
z"/>
</svg>